<svg xmlns="http://www.w3.org/2000/svg" width="50" height="50" viewBox="0 0 50 50"><g><g><path fill="#fff" d="M40.738 26.15c0 9.313-7.576 16.89-16.889 16.89-9.312 0-16.888-7.577-16.888-16.89 0-9.312 7.576-16.888 16.888-16.888 4.243 0 8.125 1.573 11.095 4.166l-4.021 4.022a11.165 11.165 0 0 0-7.074-2.517c-6.185 0-11.218 5.032-11.218 11.218s5.032 11.218 11.218 11.218 11.219-5.032 11.219-11.218c0-2.68-.945-5.142-2.518-7.074l4.022-4.021a16.817 16.817 0 0 1 4.166 11.095zm-7.972 0c0 4.918-4 8.918-8.917 8.918-4.916 0-8.917-4-8.917-8.917s4-8.917 8.917-8.917a8.87 8.87 0 0 1 5.435 1.855l-3.52 3.52a4.026 4.026 0 1 0 1.627 1.628l3.52-3.521a8.87 8.87 0 0 1 1.855 5.435zm12.047-15.638l-1.656 1.656A23.72 23.72 0 0 1 47.7 26.15C47.699 39.3 37 50 23.849 50 10.7 50 0 39.3 0 26.15 0 13 10.699 2.303 23.85 2.303a23.72 23.72 0 0 1 13.982 4.541l1.656-1.656 4.85-4.85a1.15 1.15 0 0 1 1.962.74l.157 2.466 2.465.157a1.15 1.15 0 0 1 .74 1.962zM43.04 26.15c0-4.518-1.57-8.676-4.194-11.959l-1.844-.117a1.15 1.15 0 0 1-1.075-1.075l-.117-1.844a19.097 19.097 0 0 0-11.96-4.194c-10.58 0-19.19 8.608-19.19 19.19 0 10.58 8.61 19.19 19.19 19.19 10.582 0 19.19-8.61 19.19-19.19z"/></g></g></svg>