<svg xmlns="http://www.w3.org/2000/svg" width="50" height="39" viewBox="0 0 50 39"><g><g><path fill="#fff" d="M46.637 1.143l-.173 5.105a1.112 1.112 0 0 1-1.116 1.07h-.038a1.111 1.111 0 0 1-1.078-1.144l.035-1.035-.239-.237-10.979 8.691c-.59.466-1.42.485-2.03.045l-7.244-5.223-3.9-2.811-10.972 6.913-4.658 2.935c-.279.175-.59.259-.897.259a1.677 1.677 0 0 1-1.415-.771 1.653 1.653 0 0 1 .516-2.293L19.04 2.193a1.686 1.686 0 0 1 1.882.059l6.973 5.027 4.06 2.927 7.847-6.21 1.842-1.458-.19-.188-1.043.035a1.111 1.111 0 0 1-1.154-1.07A1.112 1.112 0 0 1 40.337.171l5.147-.173c.31-.01.608.108.827.324.218.217.337.514.326.82zM50 37.893c0 .61-.5 1.107-1.117 1.107H1.117A1.112 1.112 0 0 1 0 37.892c0-.612.5-1.107 1.117-1.107h3.547v-6.797a2.404 2.404 0 0 1 2.411-2.392h3.559a2.404 2.404 0 0 1 2.41 2.392v6.797h3.194V16.363a2.404 2.404 0 0 1 2.411-2.392h3.56a2.404 2.404 0 0 1 2.41 2.392v20.422h3.194V23.44a2.404 2.404 0 0 1 2.411-2.391h3.56a2.404 2.404 0 0 1 2.41 2.391v13.344h3.194v-20.99a2.404 2.404 0 0 1 2.411-2.392h3.56a2.404 2.404 0 0 1 2.41 2.392v20.99h1.114c.617 0 1.117.496 1.117 1.108z"/></g></g></svg>