<svg xmlns="http://www.w3.org/2000/svg" width="50" height="50" viewBox="0 0 50 50"><g><g><path fill="#fff" d="M49.387 49.39c-.406.406-.94.61-1.473.61a2.077 2.077 0 0 1-1.473-.61L34.006 36.953a20.726 20.726 0 0 1-13.174 4.712C9.345 41.666 0 32.321 0 20.833 0 9.346 9.345 0 20.832 0s20.832 9.346 20.832 20.833c0 4.996-1.77 9.583-4.712 13.175l12.435 12.436a2.08 2.08 0 0 1 0 2.945zm-11.89-28.557c0-9.19-7.476-16.666-16.665-16.666S4.166 11.644 4.166 20.833c0 9.19 7.477 16.667 16.666 16.667 9.19 0 16.666-7.477 16.666-16.667z"/></g></g></svg>