<svg xmlns="http://www.w3.org/2000/svg" width="70" height="58" viewBox="0 0 70 58"><g><g><path fill="#fbcd04" d="M70 41.15c0 4.629-1.602 8.596-4.807 11.9-3.204 3.308-7.11 4.958-11.71 4.958-4.93 0-8.916-1.774-11.955-5.331-3.043-3.551-4.56-7.642-4.56-12.27 0-9.42 2.711-17.684 8.134-24.792 5.424-7.103 12.488-12.31 21.2-15.618l2.22 3.967c-7.235 4.958-11.013 11.984-11.34 21.072 3.778.828 6.86 2.77 9.244 5.826C68.806 33.922 70 37.35 70 41.15zm-36.977 0c0 4.629-1.602 8.596-4.807 11.9-3.205 3.308-7.11 4.958-11.71 4.958-4.93 0-8.916-1.735-11.955-5.206-3.043-3.471-4.56-7.6-4.56-12.396 0-9.087 2.71-17.268 8.134-24.543 5.423-7.27 12.488-12.558 21.2-15.866l2.219 3.967c-7.234 4.958-11.012 11.984-11.34 21.072 3.779.828 6.86 2.77 9.245 5.826 2.38 3.06 3.574 6.488 3.574 10.288z"/></g></g></svg>